<?xml version="1.0" encoding="UTF-8" standalone="no"?>
<!-- Created with Inkscape (http://www.inkscape.org/) -->

<svg
   xmlns:dc="http://purl.org/dc/elements/1.1/"
   xmlns:cc="http://creativecommons.org/ns#"
   xmlns:rdf="http://www.w3.org/1999/02/22-rdf-syntax-ns#"
   xmlns:svg="http://www.w3.org/2000/svg"
   xmlns="http://www.w3.org/2000/svg"
   xmlns:sodipodi="http://sodipodi.sourceforge.net/DTD/sodipodi-0.dtd"
   xmlns:inkscape="http://www.inkscape.org/namespaces/inkscape"
   width="210mm"
   height="210mm"
   viewBox="0 0 210 210"
   version="1.1"
   id="svg8"
   inkscape:version="0.92.4 (5da689c313, 2019-01-14)"
   sodipodi:docname="c.svg">
  <defs
     id="defs2" />
  <sodipodi:namedview
     id="base"
     pagecolor="#ffffff"
     bordercolor="#666666"
     borderopacity="1.0"
     inkscape:pageopacity="0.0"
     inkscape:pageshadow="2"
     inkscape:zoom="0.49497475"
     inkscape:cx="386.37347"
     inkscape:cy="454.67237"
     inkscape:document-units="mm"
     inkscape:current-layer="layer1"
     showgrid="false"
     inkscape:window-width="1822"
     inkscape:window-height="1051"
     inkscape:window-x="1689"
     inkscape:window-y="-9"
     inkscape:window-maximized="1" />
  <metadata
     id="metadata5">
    <rdf:RDF>
      <cc:Work
         rdf:about="">
        <dc:format>image/svg+xml</dc:format>
        <dc:type
           rdf:resource="http://purl.org/dc/dcmitype/StillImage" />
        <dc:title></dc:title>
      </cc:Work>
    </rdf:RDF>
  </metadata>
  <g
     inkscape:label="レイヤー 1"
     inkscape:groupmode="layer"
     id="layer1"
     transform="translate(0,-87)">
    <g
       id="g873"
       style="fill:#517c40;fill-opacity:1"
       transform="translate(0,3.7041668)">
      <path
         d="m 61.692168,242.50566 q -0.477824,-2.72639 -1.545895,-4.63768 -1.068074,-1.91129 -2.726399,-3.11991 -1.658327,-1.23671 -3.906902,-1.79886 -2.220469,-0.56215 -5.003082,-0.56215 -7.84191,0 -11.720704,4.30041 -3.878795,4.27229 -3.878795,12.98552 0,2.95126 0.449716,5.76199 0.449715,2.7826 1.377253,5.28416 0.927537,2.47343 2.332898,4.55336 1.433468,2.07993 3.372864,3.56961 1.939397,1.48968 4.412832,2.3329 2.473432,0.84322 5.50901,0.84322 2.866936,0 4.918761,-0.7589 2.051827,-0.7589 3.541507,-2.19236 1.489684,-1.43347 2.52965,-3.45719 1.068074,-2.05182 1.967503,-4.60958 l 2.529651,0.56215 q -0.477825,2.47343 -0.899434,4.3004 -0.421606,1.82697 -0.815106,3.1199 -0.393502,1.29294 -0.815111,2.10805 -0.393501,0.8151 -0.843214,1.26481 -0.758896,0.73079 -2.41722,1.29294 -1.658324,0.56213 -3.738257,0.92754 -2.079936,0.3935 -4.32851,0.59024 -2.220471,0.22486 -4.13176,0.22486 -5.199833,0 -9.444021,-1.48968 -4.244188,-1.48969 -7.279766,-4.30041 -3.00747,-2.83882 -4.665795,-6.88626 -1.658326,-4.07554 -1.658326,-9.19105 0,-5.73388 2.02372,-10.31534 2.023718,-4.58148 5.537119,-7.7857 3.541507,-3.20422 8.263517,-4.91877 4.750117,-1.71454 10.202916,-1.71454 1.798861,0 3.541506,0.19676 1.770753,0.16865 3.316652,0.44971 1.574003,0.28107 2.866933,0.64647 1.292931,0.36538 2.136149,0.73079 0.646465,0.30918 0.927536,0.64646 0.30918,0.30918 0.365394,1.20861 0.02811,0.33729 0.02811,1.40536 0.02811,1.03997 0.02811,2.44532 0.02811,1.37727 0.05622,2.92316 0,1.54589 0.05622,2.83883 z"
         style="font-style:normal;font-variant:normal;font-weight:normal;font-stretch:normal;font-size:458.66668701px;line-height:1.25;font-family:Aldhabi;-inkscape-font-specification:'Aldhabi, Normal';font-variant-ligatures:normal;font-variant-caps:normal;font-variant-numeric:normal;font-feature-settings:normal;text-align:start;letter-spacing:0px;word-spacing:0px;writing-mode:lr-tb;text-anchor:start;fill:#517c40;fill-opacity:1;stroke:none;stroke-width:0.25100383"
         id="path844"
         inkscape:connector-curvature="0" />
      <path
         d="m 77.06681,266.50922 q 2.108041,0 3.148007,1.09617 1.039967,1.09618 1.039967,3.1199 0,2.19237 -1.180505,3.42909 -1.1805,1.23671 -3.372863,1.23671 -2.023719,0 -3.148005,-1.09618 -1.124289,-1.12429 -1.124289,-3.20421 0,-2.22048 1.236716,-3.40098 1.236719,-1.1805 3.400972,-1.1805 z"
         style="font-style:normal;font-variant:normal;font-weight:normal;font-stretch:normal;font-size:458.66668701px;line-height:1.25;font-family:Aldhabi;-inkscape-font-specification:'Aldhabi, Normal';font-variant-ligatures:normal;font-variant-caps:normal;font-variant-numeric:normal;font-feature-settings:normal;text-align:start;letter-spacing:0px;word-spacing:0px;writing-mode:lr-tb;text-anchor:start;fill:#517c40;fill-opacity:1;stroke:none;stroke-width:0.25100383"
         id="path846"
         inkscape:connector-curvature="0" />
      <path
         d="m 98.878,243.06781 q -0.08432,1.06807 -0.168644,2.52964 -0.05622,1.43347 -0.05622,3.37287 l 0.168645,0.0562 q 1.292929,-1.20861 2.642079,-2.33289 1.37726,-1.12429 2.86694,-1.99562 1.48968,-0.87132 3.09179,-1.37724 1.63022,-0.53405 3.42908,-0.53405 1.63022,0 2.89504,0.44972 1.29294,0.44972 2.24858,1.26482 0.95564,0.81511 1.60211,1.99562 0.67457,1.15239 1.06807,2.58586 h 0.22486 q 1.29293,-1.29293 2.67018,-2.44533 1.40537,-1.15239 2.92315,-1.99561 1.51779,-0.87133 3.14801,-1.34914 1.65832,-0.50594 3.45718,-0.50594 2.50154,0 4.18798,0.98375 1.68643,0.95565 2.69829,2.6702 1.01186,1.71453 1.43347,4.07553 0.44971,2.33291 0.44971,5.08742 0,1.57399 -0.11243,3.5696 -0.11243,1.99561 -0.22485,3.90691 -0.14054,1.9394 -0.25297,3.56961 -0.0843,1.63022 -0.0843,2.50155 0,0.84321 0.16863,1.37724 0.19676,0.53405 0.78701,0.87132 0.59024,0.33729 1.71454,0.56216 1.1524,0.19675 3.06368,0.39349 l -1.01185,2.36101 q -0.22486,-0.0281 -0.98375,-0.0844 -0.7308,-0.0563 -1.82697,-0.11243 -1.09619,-0.0281 -2.47344,-0.0563 -1.34915,-0.0281 -2.83883,-0.0281 -1.18051,0 -2.19237,0.0281 -1.01185,0.0281 -1.82696,0.0843 0.28107,-2.47343 0.47782,-4.55337 0.19676,-2.10804 0.30919,-4.01933 0.11241,-1.91129 0.16863,-3.76637 0.0562,-1.85507 0.0562,-3.85068 0,-1.85507 -0.14053,-3.68204 -0.11242,-1.82697 -0.67458,-3.26044 -0.53402,-1.43347 -1.71453,-2.3329 -1.15239,-0.89943 -3.20422,-0.89943 -1.15239,0 -2.24857,0.28108 -1.06808,0.28107 -2.05183,0.787 -0.98375,0.50592 -1.88318,1.18051 -0.87133,0.64646 -1.63022,1.40535 0.14053,0.89943 0.16864,1.82696 0.0563,0.92754 0.0563,1.77076 0,1.74265 -0.0844,3.76637 -0.0844,2.02371 -0.16865,3.935 -0.0843,1.91129 -0.16863,3.51341 -0.0844,1.6021 -0.0844,2.47343 0,0.84321 0.14054,1.37726 0.16864,0.53403 0.73079,0.89943 0.56214,0.33727 1.65832,0.56214 1.09618,0.19675 2.97937,0.3935 l -1.01187,2.361 q -0.22486,-0.0281 -0.92753,-0.0844 -0.70268,-0.0563 -1.77076,-0.11243 -1.03997,-0.0281 -2.38911,-0.0563 -1.32103,-0.0281 -2.81072,-0.0281 -1.18049,0 -2.16425,0.0281 -0.98375,0.0281 -1.79887,0.0844 0.22487,-2.50155 0.3654,-4.58149 0.16864,-2.10803 0.28107,-4.01932 0.11244,-1.9394 0.14054,-3.79447 0.0563,-1.85508 0.0563,-3.9069 0,-1.77075 -0.11243,-3.56962 -0.11242,-1.79886 -0.67457,-3.23232 -0.53404,-1.46159 -1.68643,-2.36102 -1.12429,-0.89943 -3.17612,-0.89943 -1.15239,0 -2.24857,0.28108 -1.06808,0.28108 -2.07994,0.787 -1.01186,0.50594 -1.91129,1.18051 -0.899431,0.64646 -1.658327,1.40535 -0.05622,1.01186 -0.08432,2.10804 -0.02811,1.06807 -0.02811,2.07993 v 7.19545 q 0,1.63022 0.02811,2.81073 0.02811,1.18048 0.05622,2.05181 0.02811,0.87132 0.08432,1.63023 0.02811,0.73079 0.140535,1.15238 0.140536,0.42162 0.646465,0.70269 0.505927,0.25296 1.545897,0.4216 1.06807,0.16865 2.95125,0.36541 l -1.01186,2.36099 q -0.22485,-0.0281 -0.98375,-0.0843 -0.73078,-0.0563 -1.82696,-0.11243 -1.068078,-0.0281 -2.389117,-0.0563 -1.29293,-0.0281 -2.642075,-0.0281 -1.686434,0 -3.148008,0.0562 -1.433466,0.0563 -2.529648,0.11243 -1.09618,0.0844 -1.770754,0.14054 -0.674573,0.0563 -0.787003,0.0843 0,-0.19675 0.05622,-0.61836 0.08432,-0.44971 0.50593,-0.92754 0.421607,-0.47782 1.321039,-0.92753 0.927537,-0.44972 2.613969,-0.67457 0.112429,-1.09619 0.168645,-2.41723 0.05621,-1.34914 0.08432,-2.61397 0.02811,-1.29293 0.02811,-2.3329 v -1.51778 q 0,-3.03559 -0.02811,-5.22794 -0.02811,-2.22048 -0.05621,-3.73827 -0.02811,-1.54589 -0.08433,-2.47343 -0.02811,-0.92753 -0.05622,-1.43346 -0.05622,-0.92753 -0.196749,-1.40537 -0.140537,-0.50592 -0.646469,-0.73078 -0.505927,-0.25297 -1.517788,-0.28108 -0.983751,-0.0562 -2.754505,-0.0562 l 0.562142,-2.3048 q 1.911292,-0.19675 3.653939,-0.50593 1.770752,-0.30918 3.232327,-0.64646 1.461576,-0.33729 2.585862,-0.64647 1.12429,-0.33728 1.770754,-0.56214 z"
         style="font-style:normal;font-variant:normal;font-weight:normal;font-stretch:normal;font-size:458.66668701px;line-height:1.25;font-family:Aldhabi;-inkscape-font-specification:'Aldhabi, Normal';font-variant-ligatures:normal;font-variant-caps:normal;font-variant-numeric:normal;font-feature-settings:normal;text-align:start;letter-spacing:0px;word-spacing:0px;writing-mode:lr-tb;text-anchor:start;fill:#517c40;fill-opacity:1;stroke:none;stroke-width:0.25100383"
         id="path848"
         inkscape:connector-curvature="0" />
      <path
         d="m 171.59134,269.76965 q -1.40536,1.37726 -2.7264,2.44533 -1.29293,1.03996 -2.64207,1.74264 -1.32105,0.70268 -2.75451,1.06808 -1.43347,0.36539 -3.06369,0.36539 -2.92315,0 -5.19983,-1.06808 -2.24858,-1.06807 -3.82258,-2.97936 -1.5459,-1.93939 -2.361,-4.60958 -0.81511,-2.67018 -0.81511,-5.8463 0,-4.38472 1.46157,-7.75758 1.46157,-3.37287 3.935,-5.67765 2.47344,-2.30481 5.73388,-3.4853 3.28854,-1.18051 6.88627,-1.18051 2.72639,0 5.48089,0.67457 -0.0562,-2.7826 -0.0562,-4.89064 -0.0281,-2.07994 -0.0562,-3.71016 0,-1.65832 -0.0281,-2.97936 0,-1.34915 -0.0281,-2.61396 -0.0281,-0.95565 -0.16864,-1.4897 -0.14054,-0.53403 -0.75889,-0.787 -0.59026,-0.25296 -1.88319,-0.28107 -1.26483,-0.0562 -3.5415,-0.0562 l 0.56213,-2.30479 q 2.16426,-0.11243 4.15987,-0.33729 2.02372,-0.25297 3.68204,-0.53404 1.68643,-0.28106 2.92316,-0.56214 1.23671,-0.30918 1.88318,-0.53403 l 0.56214,0.39349 q -0.14053,1.65833 -0.22485,4.32851 -0.0563,2.67019 -0.11244,5.98684 -0.0281,3.28853 -0.0562,7.08301 0,3.79448 0,7.70137 v 13.6039 q 0,2.27667 0,3.73825 0.0281,1.43347 0.0562,2.19237 0.0281,0.73078 0.0563,1.12427 0.0563,0.92754 0.19675,1.51781 0.16865,0.59024 0.44972,0.92753 0.28108,0.33728 0.67458,0.47782 0.4216,0.11243 0.98375,0.11243 1.60211,0 3.71014,-0.84322 l 0.67457,1.79886 q -1.03995,0.61837 -2.33289,1.1524 -1.29293,0.50593 -2.61397,0.87132 -1.29292,0.39351 -2.50154,0.61836 -1.20861,0.22486 -2.07994,0.22486 -2.10803,0 -3.03557,-1.20861 -0.92753,-1.23672 -0.92753,-3.34475 v -1.01187 z m 0.0562,-2.81073 q 0,-2.05182 0.0281,-4.35661 0,-2.27668 0,-4.722 0,-2.41722 0.0281,-4.94688 0,-2.52965 0,-5.03119 -0.98375,-0.61835 -2.02372,-0.98375 -1.03997,-0.36539 -1.99562,-0.56214 -0.92754,-0.19675 -1.74264,-0.25297 -0.787,-0.0562 -1.29293,-0.0562 -2.6983,0 -4.52526,1.01185 -1.79886,0.98375 -2.89505,2.64207 -1.09618,1.63022 -1.574,3.79448 -0.47782,2.13615 -0.47782,4.44094 0,3.23232 0.787,5.56522 0.787,2.3329 2.10804,3.85069 1.32104,1.48968 3.03558,2.22046 1.71454,0.7027 3.59772,0.7027 2.02372,0 3.76636,-0.81512 1.74265,-0.81511 3.17612,-2.50155 z"
         style="font-style:normal;font-variant:normal;font-weight:normal;font-stretch:normal;font-size:458.66668701px;line-height:1.25;font-family:Aldhabi;-inkscape-font-specification:'Aldhabi, Normal';font-variant-ligatures:normal;font-variant-caps:normal;font-variant-numeric:normal;font-feature-settings:normal;text-align:start;letter-spacing:0px;word-spacing:0px;writing-mode:lr-tb;text-anchor:start;fill:#517c40;fill-opacity:1;stroke:none;stroke-width:0.25100383"
         id="path850"
         inkscape:connector-curvature="0" />
    </g>
    <g
       id="g867"
       transform="matrix(0.89998615,0,0,0.89998615,9.5843893,27.544907)">
      <path
         id="rect857"
         transform="matrix(0.26458333,0,0,0.26458333,0,87)"
         d="M 20.572266,38.84375 V 485.98633 H 783.42773 V 38.84375 Z M 577.98828,79.578125 575.4375,126.95117 c 8.7196,0.10633 16.74674,1.16906 24.08398,3.18945 7.33725,2.02041 13.61176,4.73199 18.82227,8.13477 5.31684,3.29643 9.41017,7.12456 12.28125,11.48438 2.97744,4.35981 4.4668,8.93163 4.4668,13.71679 0,3.29643 -0.69185,6.11565 -2.07422,8.45508 -1.38238,2.3394 -3.24263,4.30533 -5.58203,5.90039 -2.2331,1.48871 -4.839,2.60525 -7.81641,3.34961 -2.97744,0.63801 -6.0599,0.95703 -9.25,0.95703 -1.16971,0 -2.49958,-0.0519 -3.98828,-0.1582 -1.48873,-0.10633 -2.76477,-0.26583 -3.82813,-0.47852 -1.27604,-9.35763 -4.36046,-17.01387 -9.25195,-22.96875 -4.89151,-5.95484 -11.2179,-9.94248 -18.98047,-11.96289 l -4.94531,91.07617 c 8.29427,4.25346 16.53667,8.66774 24.72461,13.24024 8.29427,4.46614 15.7372,9.57031 22.33008,15.3125 6.69921,5.74218 12.06858,12.33376 16.10937,19.77734 4.14715,7.44358 6.22071,16.27019 6.22071,26.47852 0,10.74 -2.28493,20.31031 -6.85743,28.71094 -4.57247,8.29424 -10.52798,15.41817 -17.86523,21.37304 -7.33725,5.84852 -15.63151,10.528 -24.88281,14.03711 -9.14495,3.40279 -18.34243,5.58204 -27.59375,6.53906 l -2.8711,52.95704 -17.22656,-1.11719 2.71094,-51.83985 c -4.14713,-0.31899 -8.66708,-0.90321 -13.5586,-1.7539 -4.89149,-0.95705 -9.78233,-2.17927 -14.67382,-3.66797 -4.89149,-1.48871 -9.62284,-3.24326 -14.19532,-5.26367 -4.57249,-2.12674 -8.66775,-4.57314 -12.2832,-7.33789 -3.50911,-2.76475 -6.32638,-5.84917 -8.45312,-9.25196 -2.12674,-3.50911 -3.18946,-7.33725 -3.18946,-11.48437 0,-3.29645 0.63802,-6.2194 1.91407,-8.77149 1.38236,-2.55208 3.13693,-4.67946 5.26367,-6.38086 2.23307,-1.70135 4.73134,-2.97742 7.49609,-3.82812 2.87111,-0.8507 5.796,-1.27539 8.77344,-1.27539 3.1901,0 6.22069,0.47852 9.0918,1.43555 2.1267,9.35763 6.16622,17.43857 12.12109,24.24414 6.0612,6.69921 13.61175,11.27104 22.65039,13.71679 l 4.625,-88.68359 c -8.18794,-4.46614 -16.21507,-8.9861 -24.08398,-13.55859 -7.86893,-4.57248 -14.88716,-9.73047 -21.05469,-15.47266 -6.06121,-5.84852 -10.95401,-12.4401 -14.67578,-19.77734 -3.72181,-7.44358 -5.58203,-16.16449 -5.58203,-26.16016 0,-9.67665 1.80838,-18.55513 5.42382,-26.63672 3.61547,-8.18794 8.66582,-15.36567 15.15235,-21.5332 6.48655,-6.27387 14.19659,-11.43184 23.1289,-15.47266 8.93229,-4.04079 18.71398,-6.80426 29.34766,-8.29297 l 2.55273,-47.851559 z M 57.248047,105.98242 250.04688,240.63477 248.06641,275.63281 57.248047,409.69336 47.349609,377.06836 217.1875,257.24414 47.349609,138.60742 Z m 652.863283,13.35156 c 12.28245,0 21.45238,3.19326 27.51172,9.58008 6.05936,6.38693 9.08984,15.47448 9.08984,27.26563 0,12.77374 -3.44017,22.76496 -10.31836,29.9707 -6.87813,7.2057 -16.70274,10.80859 -29.47656,10.80859 -11.79114,0 -20.963,-3.19515 -27.51367,-9.58203 -6.55063,-6.55065 -9.82618,-15.8852 -9.82618,-28.0039 10e-6,-12.93753 3.60288,-22.8445 10.8086,-29.72266 7.20572,-6.87816 17.11462,-10.31641 29.72461,-10.31641 z m -153.65625,26.11914 c -5.4232,0.31902 -10.52734,1.27604 -15.3125,2.8711 -4.78514,1.4887 -8.93229,3.72178 -12.44141,6.69922 -3.50911,2.8711 -6.27256,6.53972 -8.29297,11.00586 -2.02041,4.46614 -3.03125,9.83551 -3.03125,16.10937 0,6.06121 0.90319,11.4325 2.71094,16.11133 1.8077,4.6788 4.30792,8.87781 7.49805,12.59961 3.1901,3.72178 6.85871,7.12522 11.00586,10.20898 4.25345,2.97744 8.77148,5.84854 13.55664,8.61329 z m 10.52734,137.17383 -4.46484,82.94336 c 5.52952,-0.10633 10.73937,-0.90384 15.63086,-2.39258 4.89149,-1.59503 9.14432,-3.88193 12.75976,-6.85937 3.7218,-2.97744 6.64673,-6.64605 8.77344,-11.00586 2.12674,-4.46614 3.18945,-9.72981 3.18945,-15.79102 0,-5.74218 -0.95704,-10.89823 -2.87109,-15.4707 -1.91405,-4.5725 -4.518,-8.71964 -7.81445,-12.4414 -3.29646,-3.82814 -7.12459,-7.23155 -11.48438,-10.20899 -4.25348,-3.08377 -8.82726,-6.00869 -13.71875,-8.77344 z m 143.12891,34.20899 c 12.28245,0 21.45238,3.1932 27.51172,9.58008 6.05936,6.38687 9.08984,15.47443 9.08984,27.26562 0,12.77377 -3.44017,22.76498 -10.31836,29.9707 -6.87813,7.20567 -16.70274,10.8086 -29.47656,10.8086 -11.79114,0 -20.963,-3.19323 -27.51367,-9.58008 -6.55063,-6.55065 -9.82618,-15.88713 -9.82618,-28.00586 10e-6,-12.93752 3.60288,-22.8445 10.8086,-29.72266 7.20572,-6.87818 17.11462,-10.3164 29.72461,-10.3164 z M 219.97461,425.54492 h 246.27344 v 20.41602 H 219.97461 Z"
         style="opacity:1;fill:#113660;fill-opacity:1;stroke:none;stroke-width:4.02519703;stroke-linecap:round;stroke-linejoin:round;stroke-miterlimit:4;stroke-dasharray:none;stroke-dashoffset:53.70708847;stroke-opacity:1;paint-order:normal"
         inkscape:connector-curvature="0" />
      <path
         inkscape:connector-curvature="0"
         id="rect862"
         d="M 5.343,104.686 H 207.482 V 87.697258 H 5.343 Z"
         style="opacity:1;fill:#8bd5dd;fill-opacity:1;stroke:none;stroke-width:0.4038766;stroke-linecap:round;stroke-linejoin:round;stroke-miterlimit:4;stroke-dasharray:none;stroke-dashoffset:53.70708847;stroke-opacity:1;paint-order:normal" />
    </g>
  </g>
</svg>
